<svg xmlns="http://www.w3.org/2000/svg" viewBox="0 0 540 160" width="540" height="160">
  <!-- WooCommerce Speech Bubble Icon -->
  <g transform="translate(15, 20)">
    <rect width="130" height="110" rx="20" fill="#7F54B3"/>
    <polygon points="40,110 20,130 55,110" fill="#7F54B3"/>
    <!-- Stylized "WOO" in bubble -->
    <path fill="#FFFFFF" d="M 28 55 C 29 45, 34 42, 40 42 C 45 42, 49 46, 50 54 C 52 46, 56 42, 62 42 C 69 42, 73 47, 72 58 L 68 85 L 59 85 L 62 61 C 62 55, 60 52, 57 52 C 54 52, 51 55, 50 61 L 46 85 L 38 85 L 41 61 C 41 55, 39 52, 36 52 C 33 52, 30 55, 29 61 L 25 85 L 16 85 Z"/>
    <path fill="#FFFFFF" d="M 80 42 C 89 42, 95 49, 95 64 C 95 78, 88 86, 79 86 C 70 86, 64 78, 64 64 C 64 49, 71 42, 80 42 Z M 79 51 C 74 51, 72 56, 72 64 C 72 72, 74 77, 79 77 C 84 77, 86 72, 86 64 C 86 56, 84 51, 79 51 Z"/>
    <path fill="#FFFFFF" d="M 107 42 C 116 42, 122 49, 122 64 C 122 78, 115 86, 106 86 C 97 86, 91 78, 91 64 C 91 49, 98 42, 107 42 Z M 106 51 C 101 51, 99 56, 99 64 C 99 72, 101 77, 106 77 C 111 77, 113 72, 113 64 C 113 56, 111 51, 106 51 Z"/>
  </g>
  <!-- "WooCommerce" Wordmark Text -->
  <text x="170" y="98" font-family="-apple-system, BlinkMacSystemFont, 'Segoe UI', Roboto, Helvetica, Arial, sans-serif" font-size="44" font-weight="700" fill="#FFFFFF" letter-spacing="-0.5">
    Woo<tspan font-weight="400" fill="#C4B5FD">Commerce</tspan>
  </text>
</svg>
